<?xml version="1.0" encoding="iso-8859-1"?>
<!-- Generator: Adobe Illustrator 16.0.4, SVG Export Plug-In . SVG Version: 6.00 Build 0)  -->
<!DOCTYPE svg PUBLIC "-//W3C//DTD SVG 1.1//EN" "http://www.w3.org/Graphics/SVG/1.1/DTD/svg11.dtd">
<svg version="1.1" id="mameblo" xmlns="http://www.w3.org/2000/svg" xmlns:xlink="http://www.w3.org/1999/xlink" x="0px" y="0px"
	 width="144px" height="144px" viewBox="0 0 144 144" style="enable-background:new 0 0 144 144;" xml:space="preserve">
<g>
	<path style="fill:#2C3E50;" d="M112.504,76.607c-3.035-1.777-6.549-3.359-10.508-4.73c3.959-1.373,7.474-2.953,10.508-4.731
		c10.983-6.435,16.553-15.593,16.553-27.22c0-11.903-5.828-21.209-17.321-27.66c-6.703-3.762-15.594-6.583-26.479-8.408
		c-4.021-0.514-9.574-1.893-15.1-1.245c-2.251,0.265-3.536,2.884-3.536,5.151c0,0.253,0.019,0.51,0.054,0.765
		c0.357,2.556,2.403,4.501,4.974,4.731c15.241,1.364,26.911,4.268,34.685,8.631c7.973,4.475,11.687,10.206,11.687,18.035
		c0,7.639-3.525,13.262-11.096,17.697c-7.406,4.34-18.546,7.289-33.106,8.763c-2.83,0.287-4.964,2.647-4.964,5.491
		s2.134,5.203,4.964,5.49c14.56,1.476,25.699,4.424,33.106,8.764c7.57,4.435,11.096,10.058,11.096,17.696
		c0,7.83-3.714,13.561-11.687,18.035c-7.773,4.363-19.443,7.267-34.687,8.631c-2.569,0.231-4.614,2.177-4.972,4.733
		c-0.035,0.252-0.054,0.51-0.054,0.763c0,2.267,1.411,4.364,3.537,5.151c3.017,1.117,8.391-0.263,15.099-1.245
		c10.885-1.824,19.776-4.646,26.479-8.408c11.493-6.451,17.321-15.757,17.321-27.66C129.057,92.201,123.487,83.042,112.504,76.607z"
		/>
	<g>
		<g>
			<path style="fill:#7F8C8D;" d="M65.94,28.919c0-3.76,3.195-6.818,7.124-6.818s7.124,3.059,7.124,6.818
				c0,3.759-3.195,6.817-7.124,6.817S65.94,32.678,65.94,28.919z"/>
		</g>
		<g>
			<path style="fill:#7F8C8D;" d="M66.552,50.932c0-3.759,3.196-6.818,7.124-6.818c3.929,0,7.124,3.059,7.124,6.818
				c0,3.76-3.195,6.819-7.124,6.819C69.748,57.751,66.552,54.692,66.552,50.932z"/>
		</g>
		<g>
			<path style="fill:#7F8C8D;" d="M14.943,42.308c0-0.261,0.006-0.526,0.019-0.797c0.255-5.593,3.034-8.864,5.321-10.623
				c2.307-1.774,4.54-2.346,5.169-2.479c1.443-0.304,2.918-0.027,4.152,0.778c1.235,0.805,2.083,2.044,2.387,3.487
				c0.078,0.371,0.118,0.755,0.118,1.137c0,2.559-1.802,4.811-4.293,5.379c-0.425,0.122-1.73,0.671-1.828,2.82
				c-0.005,0.105-0.007,0.209-0.007,0.312c0,0.962,0.215,1.669,0.64,2.098c0.214,0.217,0.444,0.334,0.517,0.368
				c2.243,0.758,3.741,2.843,3.741,5.228c0,0.543-0.08,1.083-0.238,1.603c-0.876,2.884-3.94,4.541-6.831,3.691
				C19.54,54.054,14.943,49.45,14.943,42.308z"/>
		</g>
	</g>
	<g>
		<g>
			<path style="fill:#7F8C8D;" d="M65.94,114.835c0-3.76,3.195-6.819,7.124-6.819s7.124,3.06,7.124,6.819
				c0,3.759-3.195,6.818-7.124,6.818S65.94,118.594,65.94,114.835z"/>
		</g>
		<g>
			<path style="fill:#7F8C8D;" d="M66.552,92.821c0-3.761,3.196-6.819,7.124-6.819c3.929,0,7.124,3.059,7.124,6.819
				c0,3.759-3.195,6.817-7.124,6.817C69.748,99.639,66.552,96.58,66.552,92.821z"/>
		</g>
		<g>
			<path style="fill:#7F8C8D;" d="M14.943,101.433c0-5.085,2.188-8.272,4.021-10.052c2.08-2.017,4.236-2.759,4.848-2.938
				c2.917-0.857,5.99,0.819,6.849,3.738c0.149,0.505,0.225,1.03,0.225,1.559c0,2.352-1.536,4.479-3.757,5.229
				c-0.078,0.038-0.301,0.155-0.508,0.364c-0.425,0.43-0.641,1.135-0.641,2.095c0,0.104,0.003,0.21,0.008,0.317
				c0.024,0.545,0.23,2.357,1.832,2.818c2.49,0.564,4.289,2.813,4.289,5.38c0,0.381-0.04,0.763-0.118,1.134
				c-0.304,1.445-1.151,2.684-2.387,3.49c-1.234,0.805-2.709,1.08-4.152,0.777c-3.455-0.729-10.095-4.402-10.49-13.1
				C14.949,101.967,14.943,101.697,14.943,101.433z"/>
		</g>
	</g>
</g>
</svg>
