<?xml version="1.0" encoding="iso-8859-1"?>
<!-- Generator: Adobe Illustrator 16.0.4, SVG Export Plug-In . SVG Version: 6.00 Build 0)  -->
<!DOCTYPE svg PUBLIC "-//W3C//DTD SVG 1.1//EN" "http://www.w3.org/Graphics/SVG/1.1/DTD/svg11.dtd">
<svg version="1.1" id="&#x30EC;&#x30A4;&#x30E4;&#x30FC;_1"
	 xmlns="http://www.w3.org/2000/svg" xmlns:xlink="http://www.w3.org/1999/xlink" x="0px" y="0px" width="144px" height="144px"
	 viewBox="0 0 144 144" style="enable-background:new 0 0 144 144;" xml:space="preserve">
<g>
	<path style="fill:#FFFFFF;" d="M95.38,129.212c-8.276,0-14.795-3.964-19.375-11.782c-1.266-2.159-2.391-4.66-3.367-7.479
		c-0.977,2.818-2.102,5.319-3.367,7.479c-4.58,7.818-11.099,11.782-19.375,11.782c-8.472,0-15.096-4.148-19.688-12.329
		c-2.678-4.771-4.686-11.099-5.984-18.847c-1.596,0.825-3.381,1.241-5.34,1.241c-3.821,0-8.985-1.633-11.88-9.413
		c-1.608-4.321-2.39-10.184-2.39-17.92c0-7.737,0.782-13.599,2.39-17.92c2.896-7.78,8.059-9.413,11.88-9.413
		c1.958,0,3.744,0.416,5.339,1.241c1.299-7.747,3.307-14.075,5.985-18.847c4.592-8.181,11.215-12.329,19.688-12.329
		c8.276,0,14.794,3.964,19.375,11.782c1.265,2.159,2.391,4.661,3.367,7.479c0.977-2.818,2.102-5.319,3.367-7.479
		c4.58-7.818,11.099-11.782,19.375-11.782c8.472,0,15.096,4.148,19.688,12.329c2.678,4.771,4.686,11.1,5.984,18.847
		c1.596-0.825,3.381-1.241,5.339-1.241c3.822,0,8.985,1.633,11.881,9.413c1.607,4.322,2.39,10.184,2.39,17.92
		s-0.782,13.599-2.39,17.92c-2.896,7.78-8.059,9.413-11.881,9.413c-1.958,0-3.743-0.416-5.339-1.24
		c-1.299,7.747-3.307,14.075-5.984,18.846C110.476,125.063,103.852,129.212,95.38,129.212z M72.638,86.361
		c2.023,0,3.704,1.519,3.908,3.532c1.05,10.363,3.148,18.292,6.237,23.565c3.156,5.388,7.159,7.896,12.597,7.896
		c5.572,0,9.651-2.643,12.836-8.317c3.105-5.533,5.173-13.84,6.144-24.688c0.164-1.83,1.549-3.285,3.367-3.54
		c0.182-0.025,0.365-0.038,0.546-0.038c1.613,0,3.087,1.012,3.666,2.519c1.4,3.64,3.036,4.131,4.452,4.131
		c1.443,0,3.108-0.511,4.518-4.298c1.259-3.382,1.896-8.489,1.896-15.18c0-6.691-0.638-11.799-1.896-15.18
		c-1.409-3.787-3.074-4.297-4.518-4.297c-1.416,0-3.052,0.491-4.453,4.132c-0.579,1.505-2.053,2.517-3.666,2.517
		c-0.181,0-0.363-0.013-0.543-0.038c-1.82-0.255-3.205-1.71-3.369-3.539c-0.971-10.85-3.038-19.156-6.144-24.689
		c-3.185-5.675-7.264-8.317-12.836-8.317c-5.438,0-9.44,2.509-12.597,7.896c-3.089,5.273-5.188,13.202-6.237,23.565
		c-0.204,2.014-1.885,3.532-3.908,3.532c-2.024,0-3.704-1.519-3.908-3.532c-1.05-10.365-3.148-18.293-6.237-23.565
		c-3.157-5.387-7.159-7.896-12.596-7.896c-5.573,0-9.651,2.643-12.836,8.317c-3.105,5.533-5.173,13.839-6.144,24.688
		c-0.163,1.83-1.548,3.286-3.368,3.54c-0.182,0.025-0.364,0.038-0.544,0.038c-1.613,0-3.086-1.012-3.666-2.517
		c-1.401-3.641-3.038-4.132-4.454-4.132c-1.443,0-3.108,0.511-4.517,4.297c-1.259,3.382-1.896,8.489-1.896,15.18
		s0.638,11.798,1.896,15.18c1.409,3.787,3.074,4.298,4.517,4.298c1.416,0,3.052-0.491,4.454-4.132
		c0.579-1.506,2.053-2.518,3.667-2.518c0.179,0,0.361,0.013,0.54,0.037c1.823,0.255,3.209,1.711,3.373,3.541
		c0.97,10.849,3.038,19.154,6.143,24.688c3.185,5.675,7.264,8.317,12.836,8.317c5.437,0,9.439-2.509,12.596-7.896
		c3.089-5.272,5.188-13.201,6.238-23.565C68.934,87.88,70.614,86.361,72.638,86.361z"/>
</g>
</svg>
